<svg xmlns="http://www.w3.org/2000/svg" viewBox="0 0 400 900">
  <style>
    text { font-family: Arial, sans-serif; }
    .title { font-size: 24px; font-weight: bold; }
    .subtitle { font-size: 18px; font-weight: bold; }
    .content { font-size: 14px; }
  </style>
  
  <rect width="100%" height="100%" fill="#f0e6ff"/>
  
  <text x="200" y="40" class="title" text-anchor="middle" fill="#4b0082">便秘诊断思维链</text>
  
  <g transform="translate(20, 80)">
    <rect width="360" height="120" rx="10" fill="#d8bfd8" opacity="0.6"/>
    <text x="10" y="30" class="subtitle" fill="#4b0082">症状评估</text>
    <text x="10" y="60" class="content" fill="#4b0082">• 排便频率: &lt;3次/周</text>
    <text x="10" y="80" class="content" fill="#4b0082">• 性质: 干硬、排便困难</text>
    <text x="10" y="100" class="content" fill="#4b0082">• 持续时间: 急性 vs 慢性(&gt;3个月)</text>
  </g>
  
  <g transform="translate(20, 220)">
    <rect width="360" height="140" rx="10" fill="#d8bfd8" opacity="0.6"/>
    <text x="10" y="30" class="subtitle" fill="#4b0082">可能原因</text>
    <text x="10" y="60" class="content" fill="#4b0082">• 饮食因素: 纤维摄入不足、水分不足</text>
    <text x="10" y="80" class="content" fill="#4b0082">• 生活习惯: 缺乏运动、忽视排便感</text>
    <text x="10" y="100" class="content" fill="#4b0082">• 药物: 某些止痛药、抗抑郁药</text>
    <text x="10" y="120" class="content" fill="#4b0082">• 疾病: 肠道疾病、代谢障碍</text>
  </g>
  
  <g transform="translate(20, 380)">
    <rect width="360" height="140" rx="10" fill="#d8bfd8" opacity="0.6"/>
    <text x="10" y="30" class="subtitle" fill="#4b0082">诊断步骤</text>
    <text x="10" y="60" class="content" fill="#4b0082">1. 详细病史询问</text>
    <text x="10" y="80" class="content" fill="#4b0082">2. 体格检查</text>
    <text x="10" y="100" class="content" fill="#4b0082">3. 必要时进行辅助检查 (如血液检查、结肠镜)</text>
    <text x="10" y="120" class="content" fill="#4b0082">4. 排除严重疾病 (如结肠癌)</text>
  </g>
  
  <g transform="translate(20, 540)">
    <rect width="360" height="160" rx="10" fill="#d8bfd8" opacity="0.6"/>
    <text x="10" y="30" class="subtitle" fill="#4b0082">治疗方法</text>
    <text x="10" y="60" class="content" fill="#4b0082">• 生活方式调整: 增加纤维摄入、多喝水</text>
    <text x="10" y="80" class="content" fill="#4b0082">• 适度运动: 促进肠道蠕动</text>
    <text x="10" y="100" class="content" fill="#4b0082">• 药物治疗: 润肠剂、泻药（谨慎使用）</text>
    <text x="10" y="120" class="content" fill="#4b0082">• 生物反馈治疗: 改善排便肌肉协调</text>
    <text x="10" y="140" class="content" fill="#4b0082">• 针对性治疗: 解决潜在疾病</text>
  </g>
  
  <g transform="translate(20, 720)">
    <rect width="360" height="120" rx="10" fill="#d8bfd8" opacity="0.6"/>
    <text x="10" y="30" class="subtitle" fill="#4b0082">关键信息</text>
    <text x="10" y="60" class="content" fill="#4b0082">• 长期便秘需就医</text>
    <text x="10" y="80" class="content" fill="#4b0082">• 生活方式 + 饮食调整 = 预防关键</text>
    <text x="10" y="100" class="content" fill="#4b0082">• 避免长期依赖泻药</text>
  </g>
  
  <text x="200" y="880" class="content" text-anchor="middle" fill="#4b0082">注意：此图仅供参考，具体诊断请咨询医生</text>
</svg>
