<svg xmlns="http://www.w3.org/2000/svg" viewBox="0 0 400 900">
  <style>
    text { font-family: Arial, sans-serif; }
    .title { font-size: 24px; font-weight: bold; }
    .subtitle { font-size: 18px; font-weight: bold; }
    .content { font-size: 14px; }
  </style>
  
  <rect width="100%" height="100%" fill="#e6f3e6"/>
  
  <text x="200" y="40" class="title" text-anchor="middle" fill="#2c5e2c">咳嗽诊断思维链</text>
  
  <g transform="translate(20, 80)">
    <rect width="360" height="100" rx="10" fill="#a0d6a0" opacity="0.6"/>
    <text x="10" y="30" class="subtitle" fill="#2c5e2c">症状评估</text>
    <text x="10" y="60" class="content" fill="#2c5e2c">• 持续时间: 急性(&lt;3周) vs 慢性(&gt;8周)</text>
    <text x="10" y="80" class="content" fill="#2c5e2c">• 性质: 干咳 vs 湿咳</text>
  </g>
  
  <g transform="translate(20, 200)">
    <rect width="360" height="120" rx="10" fill="#a0d6a0" opacity="0.6"/>
    <text x="10" y="30" class="subtitle" fill="#2c5e2c">可能原因</text>
    <text x="10" y="60" class="content" fill="#2c5e2c">• 上呼吸道感染 (如感冒、流感)</text>
    <text x="10" y="80" class="content" fill="#2c5e2c">• 过敏或哮喘</text>
    <text x="10" y="100" class="content" fill="#2c5e2c">• 胃食管反流病 (GERD)</text>
  </g>
  
  <g transform="translate(20, 340)">
    <rect width="360" height="140" rx="10" fill="#a0d6a0" opacity="0.6"/>
    <text x="10" y="30" class="subtitle" fill="#2c5e2c">诊断步骤</text>
    <text x="10" y="60" class="content" fill="#2c5e2c">1. 详细病史询问</text>
    <text x="10" y="80" class="content" fill="#2c5e2c">2. 体格检查</text>
    <text x="10" y="100" class="content" fill="#2c5e2c">3. 必要时进行辅助检查 (如胸片、肺功能)</text>
    <text x="10" y="120" class="content" fill="#2c5e2c">4. 排除严重疾病 (如肺炎、肺癌)</text>
  </g>
  
  <g transform="translate(20, 500)">
    <rect width="360" height="140" rx="10" fill="#a0d6a0" opacity="0.6"/>
    <text x="10" y="30" class="subtitle" fill="#2c5e2c">治疗方法</text>
    <text x="10" y="60" class="content" fill="#2c5e2c">• 对症治疗: 止咳药、祛痰剂</text>
    <text x="10" y="80" class="content" fill="#2c5e2c">• 针对性治疗: 如抗生素、支气管扩张剂</text>
    <text x="10" y="100" class="content" fill="#2c5e2c">• 生活方式调整: 如戒烟、增加湿度</text>
    <text x="10" y="120" class="content" fill="#2c5e2c">• 监测和随访</text>
  </g>
  
  <g transform="translate(20, 660)">
    <rect width="360" height="100" rx="10" fill="#a0d6a0" opacity="0.6"/>
    <text x="10" y="30" class="subtitle" fill="#2c5e2c">关键信息</text>
    <text x="10" y="60" class="content" fill="#2c5e2c">• 持续咳嗽(&gt;3周)需就医</text>
    <text x="10" y="80" class="content" fill="#2c5e2c">• 症状 + 病史 = 精准诊断</text>
  </g>
  
  <text x="200" y="880" class="content" text-anchor="middle" fill="#2c5e2c">注意：此图仅供参考，具体诊断请咨询医生</text>
</svg>
