<svg xmlns="http://www.w3.org/2000/svg" viewBox="0 0 400 900">
  <style>
    text { font-family: Arial, sans-serif; }
    .title { font-size: 24px; font-weight: bold; }
    .subtitle { font-size: 18px; font-weight: bold; }
    .content { font-size: 14px; }
  </style>
  
  <rect width="100%" height="100%" fill="#f3e6e6"/>
  
  <text x="200" y="40" class="title" text-anchor="middle" fill="#5e2c2c">咽喉疼痛诊断思维链</text>
  
  <g transform="translate(20, 80)">
    <rect width="360" height="100" rx="10" fill="#d6a0a0" opacity="0.6"/>
    <text x="10" y="30" class="subtitle" fill="#5e2c2c">症状评估</text>
    <text x="10" y="60" class="content" fill="#5e2c2c">• 持续时间: 急性(&lt;1周) vs 慢性(&gt;3周)</text>
    <text x="10" y="80" class="content" fill="#5e2c2c">• 性质: 疼痛程度、吞咽困难、声音嘶哑</text>
  </g>
  
  <g transform="translate(20, 200)">
    <rect width="360" height="120" rx="10" fill="#d6a0a0" opacity="0.6"/>
    <text x="10" y="30" class="subtitle" fill="#5e2c2c">可能原因</text>
    <text x="10" y="60" class="content" fill="#5e2c2c">• 病毒感染 (如感冒、流感)</text>
    <text x="10" y="80" class="content" fill="#5e2c2c">• 细菌感染 (如链球菌性咽喉炎)</text>
    <text x="10" y="100" class="content" fill="#5e2c2c">• 过敏或刺激 (如烟草、空气污染)</text>
  </g>
  
  <g transform="translate(20, 340)">
    <rect width="360" height="140" rx="10" fill="#d6a0a0" opacity="0.6"/>
    <text x="10" y="30" class="subtitle" fill="#5e2c2c">诊断步骤</text>
    <text x="10" y="60" class="content" fill="#5e2c2c">1. 详细病史询问</text>
    <text x="10" y="80" class="content" fill="#5e2c2c">2. 咽喉检查 (观察发红、肿胀、白斑)</text>
    <text x="10" y="100" class="content" fill="#5e2c2c">3. 必要时进行快速链球菌测试</text>
    <text x="10" y="120" class="content" fill="#5e2c2c">4. 排除严重疾病 (如扁桃体脓肿)</text>
  </g>
  
  <g transform="translate(20, 500)">
    <rect width="360" height="140" rx="10" fill="#d6a0a0" opacity="0.6"/>
    <text x="10" y="30" class="subtitle" fill="#5e2c2c">治疗方法</text>
    <text x="10" y="60" class="content" fill="#5e2c2c">• 对症治疗: 止痛药、含漱液</text>
    <text x="10" y="80" class="content" fill="#5e2c2c">• 针对性治疗: 如抗生素(细菌感染时)</text>
    <text x="10" y="100" class="content" fill="#5e2c2c">• 生活方式调整: 休息、多喝水、避免刺激</text>
    <text x="10" y="120" class="content" fill="#5e2c2c">• 监测症状变化</text>
  </g>
  
  <g transform="translate(20, 660)">
    <rect width="360" height="100" rx="10" fill="#d6a0a0" opacity="0.6"/>
    <text x="10" y="30" class="subtitle" fill="#5e2c2c">关键信息</text>
    <text x="10" y="60" class="content" fill="#5e2c2c">• 高烧(&gt;38°C)或持续1周以上需就医</text>
    <text x="10" y="80" class="content" fill="#5e2c2c">• 症状 + 体征 = 精准诊断</text>
  </g>
  
  <text x="200" y="880" class="content" text-anchor="middle" fill="#5e2c2c">注意：此图仅供参考，具体诊断请咨询医生</text>
</svg>
