<svg xmlns="http://www.w3.org/2000/svg" viewBox="0 0 400 900">
  <style>
    text { font-family: Arial, sans-serif; }
    .title { font-size: 24px; font-weight: bold; }
    .subtitle { font-size: 18px; font-weight: bold; }
    .content { font-size: 14px; }
  </style>
  
  <rect width="100%" height="100%" fill="#f3e6e6"/>
  
  <text x="200" y="40" class="title" text-anchor="middle" fill="#5e2c2c">急性腰扭伤诊断思维链</text>
  
  <g transform="translate(20, 80)">
    <rect width="360" height="100" rx="10" fill="#d6a0a0" opacity="0.6"/>
    <text x="10" y="30" class="subtitle" fill="#5e2c2c">症状评估</text>
    <text x="10" y="60" class="content" fill="#5e2c2c">• 发病时间: 突发性，通常与特定动作相关</text>
    <text x="10" y="80" class="content" fill="#5e2c2c">• 性质: 局部疼痛，可能伴有肌肉痉挛</text>
  </g>
  
  <g transform="translate(20, 200)">
    <rect width="360" height="120" rx="10" fill="#d6a0a0" opacity="0.6"/>
    <text x="10" y="30" class="subtitle" fill="#5e2c2c">可能原因</text>
    <text x="10" y="60" class="content" fill="#5e2c2c">• 突然扭转或过度伸展</text>
    <text x="10" y="80" class="content" fill="#5e2c2c">• 不当姿势或重物搬运</text>
    <text x="10" y="100" class="content" fill="#5e2c2c">• 长期姿势不良导致肌肉疲劳</text>
  </g>
  
  <g transform="translate(20, 340)">
    <rect width="360" height="140" rx="10" fill="#d6a0a0" opacity="0.6"/>
    <text x="10" y="30" class="subtitle" fill="#5e2c2c">诊断步骤</text>
    <text x="10" y="60" class="content" fill="#5e2c2c">1. 详细病史询问（起因、症状、既往史）</text>
    <text x="10" y="80" class="content" fill="#5e2c2c">2. 体格检查（触诊、活动度测试）</text>
    <text x="10" y="100" class="content" fill="#5e2c2c">3. 必要时影像学检查（X光、MRI）</text>
    <text x="10" y="120" class="content" fill="#5e2c2c">4. 排除严重疾病（如椎间盘突出、骨折）</text>
  </g>
  
  <g transform="translate(20, 500)">
    <rect width="360" height="140" rx="10" fill="#d6a0a0" opacity="0.6"/>
    <text x="10" y="30" class="subtitle" fill="#5e2c2c">治疗方法</text>
    <text x="10" y="60" class="content" fill="#5e2c2c">• 休息与适度活动相结合</text>
    <text x="10" y="80" class="content" fill="#5e2c2c">• 冰敷（初期）和热敷（后期）</text>
    <text x="10" y="100" class="content" fill="#5e2c2c">• 镇痛消炎药物（如布洛芬）</text>
    <text x="10" y="120" class="content" fill="#5e2c2c">• 物理治疗（如按摩、牵引）</text>
  </g>
  
  <g transform="translate(20, 660)">
    <rect width="360" height="100" rx="10" fill="#d6a0a0" opacity="0.6"/>
    <text x="10" y="30" class="subtitle" fill="#5e2c2c">关键信息</text>
    <text x="10" y="60" class="content" fill="#5e2c2c">• 多数情况可自愈，但需正确处理</text>
    <text x="10" y="80" class="content" fill="#5e2c2c">• 持续加重或出现放射痛需及时就医</text>
  </g>
  
  <text x="200" y="880" class="content" text-anchor="middle" fill="#5e2c2c">注意：此图仅供参考，具体诊断请咨询医生</text>
</svg>
