<svg xmlns="http://www.w3.org/2000/svg" viewBox="0 0 400 900">
  <style>
    text { font-family: Arial, sans-serif; }
    .title { font-size: 24px; font-weight: bold; }
    .subtitle { font-size: 18px; font-weight: bold; }
    .content { font-size: 14px; }
  </style>
  
  <rect width="100%" height="100%" fill="#f3e6f3"/>
  
  <text x="200" y="40" class="title" text-anchor="middle" fill="#5e2c5e">扁桃体炎诊断思维链</text>
  
  <g transform="translate(20, 80)">
    <rect width="360" height="100" rx="10" fill="#d6a0d6" opacity="0.6"/>
    <text x="10" y="30" class="subtitle" fill="#5e2c5e">症状评估</text>
    <text x="10" y="60" class="content" fill="#5e2c5e">• 主要症状: 咽喉疼痛，吞咽困难</text>
    <text x="10" y="80" class="content" fill="#5e2c5e">• 伴随症状: 发热、头痛、全身不适</text>
  </g>
  
  <g transform="translate(20, 200)">
    <rect width="360" height="120" rx="10" fill="#d6a0d6" opacity="0.6"/>
    <text x="10" y="30" class="subtitle" fill="#5e2c5e">可能原因</text>
    <text x="10" y="60" class="content" fill="#5e2c5e">• 病毒感染（如腺病毒、EB病毒）</text>
    <text x="10" y="80" class="content" fill="#5e2c5e">• 细菌感染（如链球菌）</text>
    <text x="10" y="100" class="content" fill="#5e2c5e">• 免疫系统异常（如周期性发热）</text>
  </g>
  
  <g transform="translate(20, 340)">
    <rect width="360" height="140" rx="10" fill="#d6a0d6" opacity="0.6"/>
    <text x="10" y="30" class="subtitle" fill="#5e2c5e">诊断步骤</text>
    <text x="10" y="60" class="content" fill="#5e2c5e">1. 详细病史询问（症状、发病过程、既往史）</text>
    <text x="10" y="80" class="content" fill="#5e2c5e">2. 体格检查（扁桃体观察、颈部淋巴结触诊）</text>
    <text x="10" y="100" class="content" fill="#5e2c5e">3. 实验室检查（快速链球菌测试、咽拭子培养）</text>
    <text x="10" y="120" class="content" fill="#5e2c5e">4. 必要时血液检查（白细胞计数、CRP）</text>
  </g>
  
  <g transform="translate(20, 500)">
    <rect width="360" height="140" rx="10" fill="#d6a0d6" opacity="0.6"/>
    <text x="10" y="30" class="subtitle" fill="#5e2c5e">治疗方法</text>
    <text x="10" y="60" class="content" fill="#5e2c5e">• 病毒性：对症治疗（休息、补液、止痛）</text>
    <text x="10" y="80" class="content" fill="#5e2c5e">• 细菌性：抗生素治疗（如青霉素、红霉素）</text>
    <text x="10" y="100" class="content" fill="#5e2c5e">• 盐水漱口、含片缓解症状</text>
    <text x="10" y="120" class="content" fill="#5e2c5e">• 反复发作可考虑扁桃体切除术</text>
  </g>
  
  <g transform="translate(20, 660)">
    <rect width="360" height="100" rx="10" fill="#d6a0d6" opacity="0.6"/>
    <text x="10" y="30" class="subtitle" fill="#5e2c5e">关键信息</text>
    <text x="10" y="60" class="content" fill="#5e2c5e">• 区分病毒性和细菌性至关重要</text>
    <text x="10" y="80" class="content" fill="#5e2c5e">• 注意并发症（如风湿热、肾小球肾炎）</text>
  </g>
  
  <text x="200" y="880" class="content" text-anchor="middle" fill="#5e2c5e">注意：此图仅供参考，具体诊断请咨询医生</text>
</svg>
