<svg xmlns="http://www.w3.org/2000/svg" viewBox="0 0 400 1100">
  <style>
    text { font-family: Arial, sans-serif; }
    .title { font-size: 24px; font-weight: bold; }
    .subtitle { font-size: 18px; font-weight: bold; }
    .content { font-size: 14px; }
  </style>
  
  <rect width="100%" height="100%" fill="#e6e6fa"/>
  
  <text x="200" y="40" class="title" text-anchor="middle" fill="#4b0082">新兵腿综合征诊断思维链</text>
  
  <g transform="translate(20, 80)">
    <rect width="360" height="160" rx="10" fill="#d8bfd8" opacity="0.6"/>
    <text x="10" y="30" class="subtitle" fill="#4b0082">症状特征</text>
    <text x="10" y="60" class="content" fill="#4b0082">• 小腿肌肉疼痛：尤其在长时间站立或行军后</text>
    <text x="10" y="80" class="content" fill="#4b0082">• 肌肉僵硬：通常在晨起时最为明显</text>
    <text x="10" y="100" class="content" fill="#4b0082">• 行走困难：尤其是上下楼梯时</text>
    <text x="10" y="120" class="content" fill="#4b0082">• 小腿肿胀：可能伴有触痛</text>
    <text x="10" y="140" class="content" fill="#4b0082">• 足底疼痛：可能出现足底筋膜炎症状</text>
  </g>
  
  <g transform="translate(20, 260)">
    <rect width="360" height="200" rx="10" fill="#d8bfd8" opacity="0.6"/>
    <text x="10" y="30" class="subtitle" fill="#4b0082">病因分析</text>
    <text x="10" y="60" class="content" fill="#4b0082">1. 过度训练：</text>
    <text x="10" y="80" class="content" fill="#4b0082">   • 突然增加运动强度和时间</text>
    <text x="10" y="100" class="content" fill="#4b0082">   • 长时间站立和行军</text>
    <text x="10" y="120" class="content" fill="#4b0082">2. 装备因素：</text>
    <text x="10" y="140" class="content" fill="#4b0082">   • 不合适的军靴</text>
    <text x="10" y="160" class="content" fill="#4b0082">   • 负重装备增加压力</text>
    <text x="10" y="180" class="content" fill="#4b0082">3. 个人因素：如体能水平、身体适应能力</text>
  </g>
  
  <g transform="translate(20, 480)">
    <rect width="360" height="140" rx="10" fill="#d8bfd8" opacity="0.6"/>
    <text x="10" y="30" class="subtitle" fill="#4b0082">诊断要点</text>
    <text x="10" y="60" class="content" fill="#4b0082">1. 详细病史：训练强度、持续时间、症状发展</text>
    <text x="10" y="80" class="content" fill="#4b0082">2. 体格检查：肌肉触诊、运动范围评估</text>
    <text x="10" y="100" class="content" fill="#4b0082">3. 排除其他疾病：如深静脉血栓、骨筋膜室综合征</text>
    <text x="10" y="120" class="content" fill="#4b0082">4. 必要时进行影像学检查：如X光、超声等</text>
  </g>
  
  <g transform="translate(20, 640)">
    <rect width="360" height="200" rx="10" fill="#d8bfd8" opacity="0.6"/>
    <text x="10" y="30" class="subtitle" fill="#4b0082">治疗方法</text>
    <text x="10" y="60" class="content" fill="#4b0082">1. 保守治疗：</text>
    <text x="10" y="80" class="content" fill="#4b0082">   • RICE原则：休息、冰敷、加压、抬高</text>
    <text x="10" y="100" class="content" fill="#4b0082">   • 渐进式训练：逐步增加训练强度</text>
    <text x="10" y="120" class="content" fill="#4b0082">   • 物理治疗：拉伸、按摩</text>
    <text x="10" y="140" class="content" fill="#4b0082">2. 辅助治疗：</text>
    <text x="10" y="160" class="content" fill="#4b0082">   • 合适的军靴和鞋垫</text>
    <text x="10" y="180" class="content" fill="#4b0082">   • 必要时使用消炎止痛药</text>
  </g>
  
  <g transform="translate(20, 860)">
    <rect width="360" height="180" rx="10" fill="#d8bfd8" opacity="0.6"/>
    <text x="10" y="30" class="subtitle" fill="#4b0082">预防和自我管理</text>
    <text x="10" y="60" class="content" fill="#4b0082">• 循序渐进：逐步增加训练强度和时间</text>
    <text x="10" y="80" class="content" fill="#4b0082">• 充分热身：训练前做好准备运动</text>
    <text x="10" y="100" class="content" fill="#4b0082">• 合适装备：选择合适的军靴和鞋垫</text>
    <text x="10" y="120" class="content" fill="#4b0082">• 适当休息：保证充足的恢复时间</text>
    <text x="10" y="140" class="content" fill="#4b0082">• 肌肉护理：定期进行拉伸和按摩</text>
    <text x="10" y="160" class="content" fill="#4b0082">• 注意营养：保证充足的营养和水分摄入</text>
  </g>
  
  <text x="200" y="1080" class="content" text-anchor="middle" fill="#4b0082">注意：如症状持续或加重，应及时就医并调整训练计划</text>
</svg>
