<svg xmlns="http://www.w3.org/2000/svg" viewBox="0 0 400 900">
  <style>
    text { font-family: Arial, sans-serif; }
    .title { font-size: 24px; font-weight: bold; }
    .subtitle { font-size: 18px; font-weight: bold; }
    .content { font-size: 14px; }
  </style>
  
  <rect width="100%" height="100%" fill="#f3e6f3"/>
  
  <text x="200" y="40" class="title" text-anchor="middle" fill="#5e2c5e">眼睛痒诊断思维链</text>
  
  <g transform="translate(20, 80)">
    <rect width="360" height="120" rx="10" fill="#d6a0d6" opacity="0.6"/>
    <text x="10" y="30" class="subtitle" fill="#5e2c5e">症状评估</text>
    <text x="10" y="60" class="content" fill="#5e2c5e">• 持续时间: 急性 vs 慢性</text>
    <text x="10" y="80" class="content" fill="#5e2c5e">• 程度: 轻微 vs 严重</text>
    <text x="10" y="100" class="content" fill="#5e2c5e">• 伴随症状: 发红、肿胀、分泌物等</text>
  </g>
  
  <g transform="translate(20, 220)">
    <rect width="360" height="140" rx="10" fill="#d6a0d6" opacity="0.6"/>
    <text x="10" y="30" class="subtitle" fill="#5e2c5e">可能原因</text>
    <text x="10" y="60" class="content" fill="#5e2c5e">• 过敏性结膜炎</text>
    <text x="10" y="80" class="content" fill="#5e2c5e">• 干眼症</text>
    <text x="10" y="100" class="content" fill="#5e2c5e">• 感染 (细菌、病毒)</text>
    <text x="10" y="120" class="content" fill="#5e2c5e">• 眼睑炎或其他眼部疾病</text>
  </g>
  
  <g transform="translate(20, 380)">
    <rect width="360" height="140" rx="10" fill="#d6a0d6" opacity="0.6"/>
    <text x="10" y="30" class="subtitle" fill="#5e2c5e">诊断步骤</text>
    <text x="10" y="60" class="content" fill="#5e2c5e">1. 详细病史询问</text>
    <text x="10" y="80" class="content" fill="#5e2c5e">2. 眼部检查 (包括裂隙灯检查)</text>
    <text x="10" y="100" class="content" fill="#5e2c5e">3. 必要时进行辅助检查 (如过敏原测试)</text>
    <text x="10" y="120" class="content" fill="#5e2c5e">4. 排除严重眼部疾病</text>
  </g>
  
  <g transform="translate(20, 540)">
    <rect width="360" height="140" rx="10" fill="#d6a0d6" opacity="0.6"/>
    <text x="10" y="30" class="subtitle" fill="#5e2c5e">治疗方法</text>
    <text x="10" y="60" class="content" fill="#5e2c5e">• 对症治疗: 人工泪液、冷敷</text>
    <text x="10" y="80" class="content" fill="#5e2c5e">• 针对性治疗: 如抗过敏药、抗生素</text>
    <text x="10" y="100" class="content" fill="#5e2c5e">• 生活方式调整: 如避免过敏原、减少屏幕时间</text>
    <text x="10" y="120" class="content" fill="#5e2c5e">• 定期复查</text>
  </g>
  
  <g transform="translate(20, 700)">
    <rect width="360" height="120" rx="10" fill="#d6a0d6" opacity="0.6"/>
    <text x="10" y="30" class="subtitle" fill="#5e2c5e">关键信息</text>
    <text x="10" y="60" class="content" fill="#5e2c5e">• 避免揉擦眼睛，可能加重症状</text>
    <text x="10" y="80" class="content" fill="#5e2c5e">• 长期症状需及时就医</text>
    <text x="10" y="100" class="content" fill="#5e2c5e">• 注意个人卫生，勤洗手</text>
  </g>
  
  <text x="200" y="880" class="content" text-anchor="middle" fill="#5e2c5e">注意：此图仅供参考，具体诊断请咨询眼科医生</text>
</svg>
