<svg xmlns="http://www.w3.org/2000/svg" viewBox="0 0 400 900">
  <style>
    text { font-family: Arial, sans-serif; }
    .title { font-size: 24px; font-weight: bold; }
    .subtitle { font-size: 18px; font-weight: bold; }
    .content { font-size: 14px; }
  </style>
  
  <rect width="100%" height="100%" fill="#e6f3f3"/>
  
  <text x="200" y="40" class="title" text-anchor="middle" fill="#2c5e5e">足底筋膜炎诊断思维链</text>
  
  <g transform="translate(20, 80)">
    <rect width="360" height="100" rx="10" fill="#a0d6d6" opacity="0.6"/>
    <text x="10" y="30" class="subtitle" fill="#2c5e5e">症状评估</text>
    <text x="10" y="60" class="content" fill="#2c5e5e">• 主要症状: 足跟疼痛，尤其是早晨起床时</text>
    <text x="10" y="80" class="content" fill="#2c5e5e">• 性质: 刺痛或钝痛，活动后可能加重</text>
  </g>
  
  <g transform="translate(20, 200)">
    <rect width="360" height="120" rx="10" fill="#a0d6d6" opacity="0.6"/>
    <text x="10" y="30" class="subtitle" fill="#2c5e5e">可能原因</text>
    <text x="10" y="60" class="content" fill="#2c5e5e">• 长时间站立或行走</text>
    <text x="10" y="80" class="content" fill="#2c5e5e">• 足弓过高或过低</text>
    <text x="10" y="100" class="content" fill="#2c5e5e">• 突然增加运动强度</text>
  </g>
  
  <g transform="translate(20, 340)">
    <rect width="360" height="140" rx="10" fill="#a0d6d6" opacity="0.6"/>
    <text x="10" y="30" class="subtitle" fill="#2c5e5e">诊断步骤</text>
    <text x="10" y="60" class="content" fill="#2c5e5e">1. 详细病史询问（症状、职业、运动习惯）</text>
    <text x="10" y="80" class="content" fill="#2c5e5e">2. 体格检查（足部触诊、足弓评估）</text>
    <text x="10" y="100" class="content" fill="#2c5e5e">3. 必要时影像学检查（X光、超声）</text>
    <text x="10" y="120" class="content" fill="#2c5e5e">4. 排除其他疾病（如跟骨骨刺、跟腱炎）</text>
  </g>
  
  <g transform="translate(20, 500)">
    <rect width="360" height="140" rx="10" fill="#a0d6d6" opacity="0.6"/>
    <text x="10" y="30" class="subtitle" fill="#2c5e5e">治疗方法</text>
    <text x="10" y="60" class="content" fill="#2c5e5e">• 休息和减少引发疼痛的活动</text>
    <text x="10" y="80" class="content" fill="#2c5e5e">• 冰敷和足底筋膜拉伸运动</text>
    <text x="10" y="100" class="content" fill="#2c5e5e">• 使用合适的鞋垫或矫形鞋</text>
    <text x="10" y="120" class="content" fill="#2c5e5e">• 必要时使用消炎止痛药或局部注射</text>
  </g>
  
  <g transform="translate(20, 660)">
    <rect width="360" height="100" rx="10" fill="#a0d6d6" opacity="0.6"/>
    <text x="10" y="30" class="subtitle" fill="#2c5e5e">关键信息</text>
    <text x="10" y="60" class="content" fill="#2c5e5e">• 早期治疗效果更好，避免慢性化</text>
    <text x="10" y="80" class="content" fill="#2c5e5e">• 预防包括选择合适鞋子和适度运动</text>
  </g>
  
  <text x="200" y="880" class="content" text-anchor="middle" fill="#2c5e5e">注意：此图仅供参考，具体诊断请咨询医生</text>
</svg>
