<svg xmlns="http://www.w3.org/2000/svg" viewBox="0 0 400 900">
  <style>
    text { font-family: Arial, sans-serif; }
    .title { font-size: 24px; font-weight: bold; }
    .subtitle { font-size: 18px; font-weight: bold; }
    .content { font-size: 14px; }
  </style>
  
  <rect width="100%" height="100%" fill="#fff5e6"/>
  
  <text x="200" y="40" class="title" text-anchor="middle" fill="#8b4513">风热感冒诊断思维链</text>
  
  <g transform="translate(20, 80)">
    <rect width="360" height="160" rx="10" fill="#ffdab9" opacity="0.6"/>
    <text x="10" y="30" class="subtitle" fill="#8b4513">症状特征</text>
    <text x="10" y="60" class="content" fill="#8b4513">• 发热: 常有高热</text>
    <text x="10" y="80" class="content" fill="#8b4513">• 咽喉: 咽喉肿痛明显</text>
    <text x="10" y="100" class="content" fill="#8b4513">• 鼻塞: 轻微，多为黄稠鼻涕</text>
    <text x="10" y="120" class="content" fill="#8b4513">• 咳嗽: 干咳为主</text>
    <text x="10" y="140" class="content" fill="#8b4513">• 其他: 口渴、面红、汗出</text>
  </g>
  
  <g transform="translate(20, 260)">
    <rect width="360" height="120" rx="10" fill="#ffdab9" opacity="0.6"/>
    <text x="10" y="30" class="subtitle" fill="#8b4513">中医病因</text>
    <text x="10" y="60" class="content" fill="#8b4513">• 外感风热之邪</text>
    <text x="10" y="80" class="content" fill="#8b4513">• 正气不足，卫外不固</text>
    <text x="10" y="100" class="content" fill="#8b4513">• 季节变化，气候突变</text>
  </g>
  
  <g transform="translate(20, 400)">
    <rect width="360" height="140" rx="10" fill="#ffdab9" opacity="0.6"/>
    <text x="10" y="30" class="subtitle" fill="#8b4513">辨证要点</text>
    <text x="10" y="60" class="content" fill="#8b4513">1. 察舌象: 舌质红，苔薄黄</text>
    <text x="10" y="80" class="content" fill="#8b4513">2. 诊脉象: 脉浮数</text>
    <text x="10" y="100" class="content" fill="#8b4513">3. 询问发病速度和症状特点</text>
    <text x="10" y="120" class="content" fill="#8b4513">4. 区别于风寒感冒</text>
  </g>
  
  <g transform="translate(20, 560)">
    <rect width="360" height="160" rx="10" fill="#ffdab9" opacity="0.6"/>
    <text x="10" y="30" class="subtitle" fill="#8b4513">治疗方法</text>
    <text x="10" y="60" class="content" fill="#8b4513">• 中医: 疏风清热，宣肺止咳</text>
    <text x="10" y="80" class="content" fill="#8b4513">• 推荐方剂: 银翘散、桑菊饮</text>
    <text x="10" y="100" class="content" fill="#8b4513">• 现代治疗: 退热、止咳药物</text>
    <text x="10" y="120" class="content" fill="#8b4513">• 生活调护: 多休息，多饮水</text>
    <text x="10" y="140" class="content" fill="#8b4513">• 饮食调理: 清淡易消化食物</text>
  </g>
  
  <g transform="translate(20, 740)">
    <rect width="360" height="100" rx="10" fill="#ffdab9" opacity="0.6"/>
    <text x="10" y="30" class="subtitle" fill="#8b4513">关键信息</text>
    <text x="10" y="60" class="content" fill="#8b4513">• 高热不退需及时就医</text>
    <text x="10" y="80" class="content" fill="#8b4513">• 预防: 注意保暖，增强体质</text>
  </g>
  
  <text x="200" y="880" class="content" text-anchor="middle" fill="#8b4513">注意：此图仅供参考，具体诊断请咨询中医师</text>
</svg>
