<svg xmlns="http://www.w3.org/2000/svg" viewBox="0 0 400 900">
  <style>
    text { font-family: Arial, sans-serif; }
    .title { font-size: 24px; font-weight: bold; }
    .subtitle { font-size: 18px; font-weight: bold; }
    .content { font-size: 14px; }
  </style>
  
  <rect width="100%" height="100%" fill="#f3e6e6"/>
  
  <text x="200" y="40" class="title" text-anchor="middle" fill="#5e2c2c">鸡眼诊断思维链</text>
  
  <g transform="translate(20, 80)">
    <rect width="360" height="100" rx="10" fill="#d6a0a0" opacity="0.6"/>
    <text x="10" y="30" class="subtitle" fill="#5e2c2c">症状评估</text>
    <text x="10" y="60" class="content" fill="#5e2c2c">• 外观: 圆形、硬结、中央核心</text>
    <text x="10" y="80" class="content" fill="#5e2c2c">• 症状: 压痛、行走时疼痛</text>
  </g>
  
  <g transform="translate(20, 200)">
    <rect width="360" height="120" rx="10" fill="#d6a0a0" opacity="0.6"/>
    <text x="10" y="30" class="subtitle" fill="#5e2c2c">常见部位</text>
    <text x="10" y="60" class="content" fill="#5e2c2c">• 足部: 脚趾、脚掌、脚跟</text>
    <text x="10" y="80" class="content" fill="#5e2c2c">• 手部: 手指（较少见）</text>
    <text x="10" y="100" class="content" fill="#5e2c2c">• 好发于承重或摩擦部位</text>
  </g>
  
  <g transform="translate(20, 340)">
    <rect width="360" height="140" rx="10" fill="#d6a0a0" opacity="0.6"/>
    <text x="10" y="30" class="subtitle" fill="#5e2c2c">诊断步骤</text>
    <text x="10" y="60" class="content" fill="#5e2c2c">1. 详细询问病史和发展过程</text>
    <text x="10" y="80" class="content" fill="#5e2c2c">2. 皮肤检查: 观察鸡眼特征</text>
    <text x="10" y="100" class="content" fill="#5e2c2c">3. 触诊: 评估疼痛和硬度</text>
    <text x="10" y="120" class="content" fill="#5e2c2c">4. 鉴别诊断 (如疣、胼胝、皮肤癌)</text>
  </g>
  
  <g transform="translate(20, 500)">
    <rect width="360" height="140" rx="10" fill="#d6a0a0" opacity="0.6"/>
    <text x="10" y="30" class="subtitle" fill="#5e2c2c">治疗方法</text>
    <text x="10" y="60" class="content" fill="#5e2c2c">• 去除压力: 合适的鞋子、衬垫</text>
    <text x="10" y="80" class="content" fill="#5e2c2c">• 软化处理: 水杨酸贴片、尿素霜</text>
    <text x="10" y="100" class="content" fill="#5e2c2c">• 物理去除: 专业修脚、手术切除</text>
    <text x="10" y="120" class="content" fill="#5e2c2c">• 预防复发: 矫正步态、使用鞋垫</text>
  </g>
  
  <g transform="translate(20, 660)">
    <rect width="360" height="100" rx="10" fill="#d6a0a0" opacity="0.6"/>
    <text x="10" y="30" class="subtitle" fill="#5e2c2c">关键信息</text>
    <text x="10" y="60" class="content" fill="#5e2c2c">• 鸡眼是皮肤对压力的保护性反应</text>
    <text x="10" y="80" class="content" fill="#5e2c2c">• 糖尿病患者需谨慎处理以防并发症</text>
  </g>
  
  <text x="200" y="880" class="content" text-anchor="middle" fill="#5e2c2c">注意：此图仅供参考，具体诊断请咨询医生</text>
</svg>
