<?xml version="1.0" encoding="UTF-8" standalone="no"?>
<svg
   version="1.0"
   width="248.000000pt"
   height="262.400000pt"
   viewBox="0 0 248.000000 262.400000"
   preserveAspectRatio="xMidYMid meet"
   id="svg2"
   sodipodi:docname="LOGO.svg"
   inkscape:version="1.4.2 (ebf0e940, 2025-05-08)"
   xmlns:inkscape="http://www.inkscape.org/namespaces/inkscape"
   xmlns:sodipodi="http://sodipodi.sourceforge.net/DTD/sodipodi-0.dtd"
   xmlns="http://www.w3.org/2000/svg"
   xmlns:svg="http://www.w3.org/2000/svg">
  <defs
     id="defs2" />
  <sodipodi:namedview
     id="namedview2"
     pagecolor="#ffffff"
     bordercolor="#000000"
     borderopacity="0.25"
     inkscape:showpageshadow="2"
     inkscape:pageopacity="0.0"
     inkscape:pagecheckerboard="0"
     inkscape:deskcolor="#d1d1d1"
     inkscape:document-units="pt"
     inkscape:zoom="1.1535899"
     inkscape:cx="175.53899"
     inkscape:cy="193.3096"
     inkscape:window-width="1440"
     inkscape:window-height="847"
     inkscape:window-x="0"
     inkscape:window-y="25"
     inkscape:window-maximized="0"
     inkscape:current-layer="svg2" />
  <metadata
     id="metadata1">
Created by potrace 1.16, written by Peter Selinger 2001-2019
</metadata>
  <g
     transform="matrix(0.08,0,0,-0.08,-0.1581049,265.74503)"
     fill="#000000"
     stroke="none"
     id="g2"
     style="fill:#d40000">
    <path
       d="M 1065,3182 905,3179 760,2917 C 680,2773 547,2529 463,2376 L 310,2096 v -538 -538 h 205 c 113,0 205,-2 205,-5 C 720,1012 595,820 442,587 289,355 160,159 156,153 150,143 278,140 780,140 h 630 l -2,208 -3,207 -178,5 -177,5 106,150 c 59,83 154,217 211,299 l 103,149 v 549 548 h -234 c -129,0 -241,2 -249,5 -10,4 55,126 244,458 142,249 259,455 259,460 0,7 -51,7 -425,-1 z m -25,-1262 v -140 h 150 150 v -160 -160 h -150 -150 v -151 -152 l -52,7 c -29,3 -99,6 -155,6 H 730 v 145 145 H 585 440 v 155 155 h 145 145 v 138 c 0,76 3,142 7,145 3,4 73,7 155,7 h 148 z"
       id="path1"
       style="fill:#d40000" />
    <path
       d="m 1943,2983 -323,-3 v -225 c 0,-124 -1,-228 -2,-232 -2,-5 79,-9 180,-11 l 182,-2 V 1535 560 l -197,-2 -198,-3 V 352 150 h 645 645 l 3,210 2,210 h -225 -225 v 970 970 l 193,2 192,3 3,238 2,237 -277,-2 c -153,-2 -423,-4 -600,-5 z"
       id="path2"
       style="fill:#d40000" />
  </g>
</svg>
